<?xml version="1.0" encoding="UTF-8"?>
<svg id="Layer_1" xmlns="http://www.w3.org/2000/svg" version="1.1" viewBox="0 0 160 160">
  <!-- Generator: Adobe Illustrator 29.5.1, SVG Export Plug-In . SVG Version: 2.1.0 Build 141)  -->
  <defs>
    <style>
      .st0 {
        fill: #ce83b8;
      }
    </style>
  </defs>
  <path class="st0" d="M78.21,78.94c-.46-1.83-.05-3.64.01-5.46.04-1.16.2-2.32.18-3.48-.03-2.27.09-4.55.18-6.81.27-6.35-.45-12.71.17-19.05.14-1.44.31-2.87.22-4.32-.04-.76.24-1.36.84-1.82,1.22-.96,2.44-1.92,3.66-2.87,1.44-.05,1.47-1.14,1.73-1.9.25-.73.21-1.55.3-2.33.04-.41-.01-.88.49-1.06.46-.17.87.04,1.11.39.55.8,1.28,1.15,2.28,1.01.12.54.18,1.04.11,1.51.09.06.18.13.26.19.42.15.7.43.98.8.33.3.61.65.77.86,0-.02.09.04.33.29.16.16.26.35.35.54,1.66,1.23,3.13,2.63,4.45,4.2.95,1.13,2.28,1.87,3.06,3.19.41.7,1.49.49,2.18,1.06,1.56,1.29,3.05,2.66,4.57,3.98,1.1.96,2.39,1.82,3.66,2.65,1.66,1.08,1.61,1.64-.09,2.65-1.81,1.07-3.12,2.61-4.05,4.45-.49.97-.36,2.15-1.18,3.07-.63.7-1.43,1.13-2.1,1.76-2.46,2.36-4.87,4.75-7.23,7.21-2.54,2.65-4.9,5.47-7.41,8.14-1.14,1.2-2.44,2.5-3.12,3.84-1.41,2.82-3.5,5.22-4.72,8.13-.29.68-.63,1.35-1.03,1.97-.39.6-.72,1.14-.64,1.92.05.48-.13,1.02-.48,1.43-.23.28-.54.37-.87.18-.28-.16-.37-.43-.27-.72.87-2.75.49-5.6.61-8.4M89.68,82.41c.77-.98,1.56-1.95,2.45-2.81,2.23-2.13,4.13-4.57,6.4-6.67,2.28-2.11,4.43-4.36,6.79-6.4,1.16-1.01,2.22-1.62,3.97-1.02,2.03.69,4.25.79,6.39,1.15.48.08.92-.08,1.34-.28.38-.18.75-.39,1.14-.53.95-.35,2.05-.54,2.81.09.78.64.56,1.76.44,2.72-.3,2.4-.56,4.79-.84,7.19.28,1.77.13,3.35.37,4.93.18,1.17-.5,2.46-.43,3.8.24,4.34-.5,8.65-.39,13.01.03,1.33-.56,2.85-1.69,3.85-.96.85-1.76,1.87-3.01,2.44-.66.3-1,1.26-1.55,1.86-1.74,1.9-3.66,3.57-5.72,5.13-1.35,1.03-2.58,2.23-3.9,3.33-2.82,2.34-5.33,5.03-8.19,7.35-1.34,1.08-2.4,2.53-3.67,3.73-2.97,2.79-5.86,5.67-9.25,7.99-1.67,1.14-3.17,2.55-4.71,3.88-.43.38-.83.59-1.37.35-.52-.24-.5-.73-.51-1.2-.08-5.01-.17-10.01.21-15.01.1-1.28-.1-2.65-.39-3.83-.68-2.8.51-5.31.68-7.96.17-2.56,1.08-4.9,2.27-7.05,1.34-2.41,1.77-5.17,3.28-7.52.86-1.34,1.27-3.02,1.9-4.55.56-1.36,1.61-2.35,2.19-3.66.28-.63,1.21-1.78,1.21-1.78M140.29,104.5c-.82-1.33-1.32-2.82-2.51-3.96-1.6-1.55-3.25-1.52-4.81.13-1.37,1.45-2.57,2.27-4.65,1.04-.67-.39-1.47-.57-2.24-.76-1.4-.35-2.09-1.2-1.63-3.23.18-.78.32-1.49.18-2.3-.24-1.43.07-2.88.08-4.32.01-2.27.83-4.46.61-6.86-.27-2.93-.03-5.93.14-8.89.18-3.2.81-6.39.74-9.57-.05-2.31.01-4.64-.09-6.96-.06-1.43-.33-2.69-1.16-3.9-.7-1.01-1.68-1.44-2.69-1.98-1.99-1.07-3.82-2.47-5.86-3.44-3.89-1.85-6.81-4.97-10.17-7.49-1.15-.86-2.31-1.78-3.45-2.69-4.11-3.32-7.06-7.87-11.6-10.72-.15-.09-.24-.28-.35-.44-1.55-2.13-3.62-3.8-5.27-5.86-1.41-1.75-3.18-3.19-4.71-4.85-.54-.58-1.15-1.38-.18-2.16,1.15-.93,1.88-2.08,2.52-3.43,1.69-3.61,1.05-6.46-2.35-8.46-2.76-1.62-5.91-1.78-8.91-1.18-3.36.67-4.94,3.92-4.08,7.25.55,2.13,1.79,3.75,3.48,5.03,1.1.83.92,1.54.09,2.41-1.7,1.77-3.59,3.37-5.27,5.13-2.25,2.37-4.9,4.33-6.96,6.88-.23.28-.53.55-.85.71-1.49.76-2.07,2.64-3.83,3.09-.32.08-.48.54-.47.95.02.74-.36,1.2-.97,1.56-.85.51-1.41,1.31-2.03,2.07-1.17,1.43-2.56,2.65-3.77,4.05-1.3,1.49-3.11,2.6-4.21,4.21-1.71,2.5-3.85,4.63-5.59,7.09-.57.81-1.2,1.63-2.35,1.26-1.71-.56-2.41-1.48-2.47-2.97-.03-.69-.03-1.34-.46-1.99-.89-1.35-2.13-1.67-3.66-1.84-2.32-.26-4.31-.19-6.28,1.49-3.16,2.71-1.79,8.17,1.1,10.17,1.16.8,2.11.16,3.13.05,1.26-.13,2.62.07,3.73-.82.22-.18.47-.24.78-.18,2.2.41,3.61,2.25,3.57,4.42-.09,5.6,0,11.2-.19,16.8-.15,4.14.34,8.27-.15,12.4-.13,1.09-.39,2.17-.22,3.32.38,2.58.38,5.2.17,7.8-.09,1.14-.7,2.27-.55,3.42.21,1.67,0,3.58,1.8,4.64,2.15,1.27,3.77,3.16,5.68,4.69,1.29,1.04,2.08,2.55,3.65,3.33.76.38,1.33,1.25,1.34,2.15.08.05.16.1.23.16.31.13.6.33.83.57.04.04.09.08.13.13.28.24.51.55.67.89.04.04.08.09.13.14.04.03.09.06.13.1.15.12.28.25.4.39.09.09.17.18.25.27.05.06.11.12.16.18.1.07.2.14.3.23.12.11.24.26.34.44.97.97,2.01,1.39,2.78,2.13,1.65,1.6,3.31,3.18,5.05,4.67,1.97,1.68,4.1,3.18,5.91,5.01,1.75,1.78,3.57,3.49,5.31,5.28,1.71,1.75,1.6,2.32.04,4.25-.26.32-.74.54-.71,1,.12,2.12.59,4.14,1.57,6.07.73,1.44,2.1,1.67,3.36,2.1,3.59,1.22,7.02-1.77,6.48-5.53-.19-1.34-.78-2.44-1.55-3.47-.52-.68-.67-1.31-.13-2.02,1.5-1.96,3.14-3.78,5.19-5.19,1.81-1.25,3.69-2.41,5.43-3.76.66-.52,1.45-.8,2.06-1.37,1.36-1.29,2.73-2.57,4.18-3.91,1.38-.61,1.82-2.02,2.79-2.84,2.08-1.74,4.16-3.47,6.03-5.44.53-.56,1.04-1.21,1.69-1.58,1.32-.76,2.47-1.73,3.6-2.72,1.1-.97,2.14-2.02,3.21-3.02,1.87-1.74,3.75-3.48,5.63-5.2,1.32-1.21,2.63-2.43,3.99-3.59.67-.58,1.44-.58,2.2-.07,1.04.7,2.1,1.3,3.38,1.56,1.13.23,1.88,1.18,2.03,2.27.12.87.57,1.46,1.01,2.08,1.81,2.59,4.57,3.2,6.89,1.12,2-1.79,3.18-4.27,3.39-7.07,0-.17-.05-.38-.14-.53l-.04-.02ZM27.74,54.63c-.85.52-1.6.15-2.19-.56-.2-.25-.34-.55-.51-.83-.5-1.07-.27-1.73.62-2.1.81-.34,2.28.21,2.64,1.03.4.92.39,1.87-.56,2.45h0ZM118.08,55.44c2.44.71,2.43,2.71,1.45,4.66-.58,1.16-1.71,1.71-2.78,2.18-1.78.77-3.58,1.25-5.58.31-1.72-.81-2.22-1.88-1.45-3.64,1.13-2.59,3.14-3.73,5.82-3.99,1.04-.03,1.78.27,2.54.49h0ZM72.55,7.08c.47-.74,1.49-.92,2.32-1.09,1.42-.3,2.81.15,4.01.85,1.77,1.04,1.62,2.83-.18,4.75-1.24,1.32-2.72,1.44-4.35,1.16-2.86-.84-3-3.76-1.79-5.67h-.01ZM42.93,107c-.67.29-1.42.27-1.73-.39-.6-1.26-1.65-2.41-1.36-3.98.03-.18,0-.37,0-.56-.04-.86-.86-1.8.18-2.56,1.33-.97,2.74-1.75,4.48-1.15.77.26,1.26.85,1.38,1.62.22,1.41.3,2.83.15,4.26-.71,1.49-1.83,2.21-3.09,2.76h-.01ZM70.4,136.31c-.6.39-.8-.26-1.16-.61-1.06-1.06-2.16-2.08-3.31-3.04-3.58-2.98-7.02-6.1-10.19-9.51-.49-.52-1.08-.85-1.59-1.3-3.1-2.73-5.63-6.04-8.75-8.75-.75-.65-2.15-.95-1.98-2.1.18-1.22,1.72-.74,2.56-1.25,1.58-.97,3.32-1.7,4.12-3.59.34-.8,1.56-.89,2.58-.2,1.37.93,2.59,1.98,3.56,3.41,1.65,2.45,3.57,4.72,5.36,7.07.59.78,1.13,1.58,1.7,2.38,2.12,2.76,2.4,6.16,4.22,8.85.72,1.07.76,2.44,1.26,3.65.51,1.24,1.26,2.35,1.72,3.61.19.52.41,1.06-.09,1.38h-.01ZM72.09,113.06c-.1,1.33-.85,2.57-.76,4.03.1,1.7-.17,3.41-.29,5.12-.03.43.15,1.03-.54,1.1-.48.05-.8-.34-.91-.74-1.14-4.39-4.21-7.68-6.62-11.31-1.61-2.42-3.41-4.86-5.76-6.67-1.44-1.12-3.1-1.99-4.75-2.8-1.28-.62-2.05-1.51-2.41-2.84-.35-1.28-.89-2.42-2.1-3.16-1.79-1.09-3.66-1.5-5.71-.97s-2.63.18-2.61-1.86c.03-3.6-.39-7.18.04-10.8.22-1.85.12-3.78.24-5.67-.02-4-.02-7.75-.05-11.51,0-.82.18-1.38,1.03-1.75.95-.42,1.56-2.13,1.3-3.14-.15-.58-.56-.78-1.07-.97-1.56-.55-1.62-.76-.78-2.12.77-1.25,1.93-2.22,2.7-3.43,1.65-2.56,4.3-4.13,6.04-6.63,1.54-2.22,3.72-4.01,5.62-5.98.89-.92,1.77-1.83,2.42-2.97.63-1.11,1.87-1.65,2.69-2.58,1.66-1.88,3.25-3.85,5.15-5.48,1.99-1.7,2.35-1.55,3,1.06.53,2.14,1.12,4.19,2.85,5.76.63.57,1.39.68,2.06,1.09,1.15.71,1.65,1.59,1.68,2.95.05,2.31.12,4.68-.06,6.91-.54,6.84-.07,13.66-.31,20.48-.11,3.05.19,6.13-.14,9.15-.18,1.68.33,3.36-.28,5.06-.4,1.11-.22,2.47-.13,3.7.15,1.91-.93,3.63-.82,5.48.24,3.82-.27,7.61-.42,11.41-.13,3.36-.03,6.73-.27,10.07h-.03ZM74.28,150.76c-.51.28-.72-.21-1.01-.48-.72-.68-.84-1.52-.61-2.42.19-.72.58-1.07,1.28-.46.7.76.85,1.52.9,2.31.03.45-.17.83-.56,1.04h0ZM73.83,34.18c-1.97-1.4-2.76-4.2-1.99-6.23.38-1.01.12-2.2,1.14-3.04.67-.56,1.32-1.07,2.18-1.07,1.94,0,3.96-.46,5.57,1.27,1.04,1.12,1.48,2.76.81,4.2-.4.84-.8,1.69-1.26,2.49-1.22,2.09-4.5,3.29-6.44,2.38h0ZM133.96,108.22c-.95-.14-1.43-.82-1.45-1.76-.02-.78.23-1.51,1.04-1.8.95-.33,2.19,1.04,2.17,2.33-.11,1.4-.97,1.33-1.75,1.22h0Z"/>
  <path class="st0" d="M55.5,72.34c-.7-1.66-.11-3.46,1.32-4.02.67-.26,1.43-.18,1.92.42.43.52,1.02,1.12.48,1.85-.45.61-.23,1.37-.62,1.96-.85,1.28-1.99,1.23-3.1-.22h0Z"/>
  <path class="st0" d="M49.27,67.82c-1.19.43-2.24.44-3-.54-.48-.61.08-2.87.76-3.51.69-.64,2.16-.35,2.59.51.6,1.21.55,2.38-.35,3.54Z"/>
  <path class="st0" d="M65.12,78c-.33-1.34.4-2.28,1.01-3.2.41-.62,1.13-.29,1.67-.05,1.41.63.8,1.93.85,2.96.07,1.35-1.22,1-1.95,1.29-.84.34-1.3-.14-1.58-1Z"/>
  <path class="st0" d="M103.2,92.06c-.02,2.05-.71,2.92-2.56,3.31-.77.17-1.48-.73-1.3-1.67.08-.41.26-.8.3-1.21.07-.87.18-1.8,1.17-1.97,1.08-.18,2,.24,2.39,1.53h0Z"/>
  <path class="st0" d="M94.09,88.58c-.02,2.05-.71,2.92-2.56,3.31-.77.17-1.48-.73-1.3-1.67.08-.41.26-.8.3-1.21.07-.87.18-1.8,1.17-1.97,1.08-.18,2,.24,2.39,1.53h0Z"/>
  <path class="st0" d="M109.82,96.27c-.63.79-1.15,1.89-2.17,1.51-.98-.37-.77-1.54-.74-2.47.03-.81.06-1.68.83-2.08.59-.3,1.12.27,1.57.63.75.61,1.08,1.38.51,2.41Z"/>
  <path class="st0" d="M114.76,96.54c.67.05,1.36-.16,1.63.61.34.95.41,2.09-.16,2.77-.58.69-1.74.44-2.62.15-.75-.25-.26-.87-.17-1.31.17-.85.31-1.74,1.32-2.22Z"/>
</svg>