<?xml version="1.0" encoding="UTF-8"?>
<svg id="Layer_1" data-name="Layer 1" xmlns="http://www.w3.org/2000/svg" xmlns:xlink="http://www.w3.org/1999/xlink" viewBox="0 0 400 240">
  <defs>
    <style>
      .cls-1 {
        fill: none;
      }

      .cls-2 {
        fill: #00a4bb;
      }

      .cls-3 {
        fill: url(#linear-gradient);
      }

      .cls-4 {
        fill: #00a4bb;
      }

      .cls-5 {
        fill: #cd83b7;
      }

      .cls-6 {
        fill: #cd83b7;
      }
    </style>
    <linearGradient id="linear-gradient" x1="152.81" y1="120.8" x2="272.84" y2="120.8" gradientTransform="translate(0 240.4) scale(1 -1)" gradientUnits="userSpaceOnUse">
      <stop offset=".45" stop-color="#cd83b7"/>
      <stop offset=".52" stop-color="#00a4bb"/>
    </linearGradient>
  </defs>
  <path class="cls-3" d="M210.58,120.05c-.46-1.83-.05-3.64.01-5.46.04-1.16.2-2.32.18-3.48-.03-2.27.09-4.55.18-6.81.27-6.35-.45-12.71.17-19.05.14-1.44.31-2.87.22-4.32-.04-.76.24-1.36.84-1.82,1.22-.96,2.44-1.92,3.66-2.87,1.44-.05,1.47-1.14,1.73-1.9.25-.73.21-1.55.3-2.33.04-.41-.01-.88.49-1.06.46-.17.87.04,1.11.39.55.8,1.28,1.15,2.28,1.01.12.54.18,1.04.11,1.51.09.06.18.13.26.19.42.15.7.43.98.8.33.3.61.65.77.86,0-.02.09.04.33.29.16.16.26.35.35.54,1.66,1.23,3.13,2.63,4.45,4.2.95,1.13,2.28,1.87,3.06,3.19.41.7,1.49.49,2.18,1.06,1.56,1.29,3.05,2.66,4.57,3.98,1.1.96,2.39,1.82,3.66,2.65,1.66,1.08,1.61,1.64-.09,2.65-1.81,1.07-3.12,2.61-4.05,4.45-.49.97-.36,2.15-1.18,3.07-.63.7-1.43,1.13-2.1,1.76-2.46,2.36-4.87,4.75-7.23,7.21-2.54,2.65-4.9,5.47-7.41,8.14-1.14,1.2-2.44,2.5-3.12,3.84-1.41,2.82-3.5,5.22-4.72,8.13-.29.68-.63,1.35-1.03,1.97-.39.6-.72,1.14-.64,1.92.05.48-.13,1.02-.48,1.43-.23.28-.54.37-.87.18-.28-.16-.37-.43-.27-.72.87-2.75.49-5.6.61-8.4M222.05,123.52c.77-.98,1.56-1.95,2.45-2.81,2.23-2.13,4.13-4.57,6.4-6.67,2.28-2.11,4.43-4.36,6.79-6.4,1.16-1.01,2.22-1.62,3.97-1.02,2.03.69,4.25.79,6.39,1.15.48.08.92-.08,1.34-.28.38-.18.75-.39,1.14-.53.95-.35,2.05-.54,2.81.09.78.64.56,1.76.44,2.72-.3,2.4-.56,4.79-.84,7.19.28,1.77.13,3.35.37,4.93.18,1.17-.5,2.46-.43,3.8.24,4.34-.5,8.65-.39,13.01.03,1.33-.56,2.85-1.69,3.85-.96.85-1.76,1.87-3.01,2.44-.66.3-1,1.26-1.55,1.86-1.74,1.9-3.66,3.57-5.72,5.13-1.35,1.03-2.58,2.23-3.9,3.33-2.82,2.34-5.33,5.03-8.19,7.35-1.34,1.08-2.4,2.53-3.67,3.73-2.97,2.79-5.86,5.67-9.25,7.99-1.67,1.14-3.17,2.55-4.71,3.88-.43.38-.83.59-1.37.35-.52-.24-.5-.73-.51-1.2-.08-5.01-.17-10.01.21-15.01.1-1.28-.1-2.65-.39-3.83-.68-2.8.51-5.31.68-7.96.17-2.56,1.08-4.9,2.27-7.05,1.34-2.41,1.77-5.17,3.28-7.52.86-1.34,1.27-3.02,1.9-4.55.56-1.36,1.61-2.35,2.19-3.66.28-.63,1.21-1.78,1.21-1.78M272.66,145.61c-.82-1.33-1.32-2.82-2.51-3.96-1.6-1.55-3.25-1.52-4.81.13-1.37,1.45-2.57,2.27-4.65,1.04-.67-.39-1.47-.57-2.24-.76-1.4-.35-2.09-1.2-1.63-3.23.18-.78.32-1.49.18-2.3-.24-1.43.07-2.88.08-4.32.01-2.27.83-4.46.61-6.86-.27-2.93-.03-5.93.14-8.89.18-3.2.81-6.39.74-9.57-.05-2.31.01-4.64-.09-6.96-.06-1.43-.33-2.69-1.16-3.9-.7-1.01-1.68-1.44-2.69-1.98-1.99-1.07-3.82-2.47-5.86-3.44-3.89-1.85-6.81-4.97-10.17-7.49-1.15-.86-2.31-1.78-3.45-2.69-4.11-3.32-7.06-7.87-11.6-10.72-.15-.09-.24-.28-.35-.44-1.55-2.13-3.62-3.8-5.27-5.86-1.41-1.75-3.18-3.19-4.71-4.85-.54-.58-1.15-1.38-.18-2.16,1.15-.93,1.88-2.08,2.52-3.43,1.69-3.61,1.05-6.46-2.35-8.46-2.76-1.62-5.91-1.78-8.91-1.18-3.36.67-4.94,3.92-4.08,7.25.55,2.13,1.79,3.75,3.48,5.03,1.1.83.92,1.54.09,2.41-1.7,1.77-3.59,3.37-5.27,5.13-2.25,2.37-4.9,4.33-6.96,6.88-.23.28-.53.55-.85.71-1.49.76-2.07,2.64-3.83,3.09-.32.08-.48.54-.47.95.02.74-.36,1.2-.97,1.56-.85.51-1.41,1.31-2.03,2.07-1.17,1.43-2.56,2.65-3.77,4.05-1.3,1.49-3.11,2.6-4.21,4.21-1.71,2.5-3.85,4.63-5.59,7.09-.57.81-1.2,1.63-2.35,1.26-1.71-.56-2.41-1.48-2.47-2.97-.03-.69-.03-1.34-.46-1.99-.89-1.35-2.13-1.67-3.66-1.84-2.32-.26-4.31-.19-6.28,1.49-3.16,2.71-1.79,8.17,1.1,10.17,1.16.8,2.11.16,3.13.05,1.26-.13,2.62.07,3.73-.82.22-.18.47-.24.78-.18,2.2.41,3.61,2.25,3.57,4.42-.09,5.6,0,11.2-.19,16.8-.15,4.14.34,8.27-.15,12.4-.13,1.09-.39,2.17-.22,3.32.38,2.58.38,5.2.17,7.8-.09,1.14-.7,2.27-.55,3.42.21,1.67,0,3.58,1.8,4.64,2.15,1.27,3.77,3.16,5.68,4.69,1.29,1.04,2.08,2.55,3.65,3.33.76.38,1.33,1.25,1.34,2.15.08.05.16.1.23.16.31.13.6.33.83.57.04.04.09.08.13.13.28.24.51.55.67.89.04.04.08.09.13.14.04.03.09.06.13.1.15.12.28.25.4.39.09.09.17.18.25.27.05.06.11.12.16.18.1.07.2.14.3.23.12.11.24.26.34.44.97.97,2.01,1.39,2.78,2.13,1.65,1.6,3.31,3.18,5.05,4.67,1.97,1.68,4.1,3.18,5.91,5.01,1.75,1.78,3.57,3.49,5.31,5.28,1.71,1.75,1.6,2.32.04,4.25-.26.32-.74.54-.71,1,.12,2.12.59,4.14,1.57,6.07.73,1.44,2.1,1.67,3.36,2.1,3.59,1.22,7.02-1.77,6.48-5.53-.19-1.34-.78-2.44-1.55-3.47-.52-.68-.67-1.31-.13-2.02,1.5-1.96,3.14-3.78,5.19-5.19,1.81-1.25,3.69-2.41,5.43-3.76.66-.52,1.45-.8,2.06-1.37,1.36-1.29,2.73-2.57,4.18-3.91,1.38-.61,1.82-2.02,2.79-2.84,2.08-1.74,4.16-3.47,6.03-5.44.53-.56,1.04-1.21,1.69-1.58,1.32-.76,2.47-1.73,3.6-2.72,1.1-.97,2.14-2.02,3.21-3.02,1.87-1.74,3.75-3.48,5.63-5.2,1.32-1.21,2.63-2.43,3.99-3.59.67-.58,1.44-.58,2.2-.07,1.04.7,2.1,1.3,3.38,1.56,1.13.23,1.88,1.18,2.03,2.27.12.87.57,1.46,1.01,2.08,1.81,2.59,4.57,3.2,6.89,1.12,2-1.79,3.18-4.27,3.39-7.07,0-.17-.05-.38-.14-.53l-.04-.02h0ZM160.11,95.74c-.85.52-1.6.15-2.19-.56-.2-.25-.34-.55-.51-.83-.5-1.07-.27-1.73.62-2.1.81-.34,2.28.21,2.64,1.03.4.92.39,1.87-.56,2.45h0ZM250.45,96.55c2.44.71,2.43,2.71,1.45,4.66-.58,1.16-1.71,1.71-2.78,2.18-1.78.77-3.58,1.25-5.58.31-1.72-.81-2.22-1.88-1.45-3.64,1.13-2.59,3.14-3.73,5.82-3.99,1.04-.03,1.78.27,2.54.49h0ZM204.92,48.19c.47-.74,1.49-.92,2.32-1.09,1.42-.3,2.81.15,4.01.85,1.77,1.04,1.62,2.83-.18,4.75-1.24,1.32-2.72,1.44-4.35,1.16-2.86-.84-3-3.76-1.79-5.67h-.01ZM175.3,148.11c-.67.29-1.42.27-1.73-.39-.6-1.26-1.65-2.41-1.36-3.98.03-.18,0-.37,0-.56-.04-.86-.86-1.8.18-2.56,1.33-.97,2.74-1.75,4.48-1.15.77.26,1.26.85,1.38,1.62.22,1.41.3,2.83.15,4.26-.71,1.49-1.83,2.21-3.09,2.76h-.01ZM202.77,177.42c-.6.39-.8-.26-1.16-.61-1.06-1.06-2.16-2.08-3.31-3.04-3.58-2.98-7.02-6.1-10.19-9.51-.49-.52-1.08-.85-1.59-1.3-3.1-2.73-5.63-6.04-8.75-8.75-.75-.65-2.15-.95-1.98-2.1.18-1.22,1.72-.74,2.56-1.25,1.58-.97,3.32-1.7,4.12-3.59.34-.8,1.56-.89,2.58-.2,1.37.93,2.59,1.98,3.56,3.41,1.65,2.45,3.57,4.72,5.36,7.07.59.78,1.13,1.58,1.7,2.38,2.12,2.76,2.4,6.16,4.22,8.85.72,1.07.76,2.44,1.26,3.65.51,1.24,1.26,2.35,1.72,3.61.19.52.41,1.06-.09,1.38h-.01ZM204.46,154.17c-.1,1.33-.85,2.57-.76,4.03.1,1.7-.17,3.41-.29,5.12-.03.43.15,1.03-.54,1.1-.48.05-.8-.34-.91-.74-1.14-4.39-4.21-7.68-6.62-11.31-1.61-2.42-3.41-4.86-5.76-6.67-1.44-1.12-3.1-1.99-4.75-2.8-1.28-.62-2.05-1.51-2.41-2.84-.35-1.28-.89-2.42-2.1-3.16-1.79-1.09-3.66-1.5-5.71-.97s-2.63.18-2.61-1.86c.03-3.6-.39-7.18.04-10.8.22-1.85.12-3.78.24-5.67-.02-4-.02-7.75-.05-11.51,0-.82.18-1.38,1.03-1.75.95-.42,1.56-2.13,1.3-3.14-.15-.58-.56-.78-1.07-.97-1.56-.55-1.62-.76-.78-2.12.77-1.25,1.93-2.22,2.7-3.43,1.65-2.56,4.3-4.13,6.04-6.63,1.54-2.22,3.72-4.01,5.62-5.98.89-.92,1.77-1.83,2.42-2.97.63-1.11,1.87-1.65,2.69-2.58,1.66-1.88,3.25-3.85,5.15-5.48,1.99-1.7,2.35-1.55,3,1.06.53,2.14,1.12,4.19,2.85,5.76.63.57,1.39.68,2.06,1.09,1.15.71,1.65,1.59,1.68,2.95.05,2.31.12,4.68-.06,6.91-.54,6.84-.07,13.66-.31,20.48-.11,3.05.19,6.13-.14,9.15-.18,1.68.33,3.36-.28,5.06-.4,1.11-.22,2.47-.13,3.7.15,1.91-.93,3.63-.82,5.48.24,3.82-.27,7.61-.42,11.41-.13,3.36-.03,6.73-.27,10.07h-.03ZM206.65,191.87c-.51.28-.72-.21-1.01-.48-.72-.68-.84-1.52-.61-2.42.19-.72.58-1.07,1.28-.46.7.76.85,1.52.9,2.31.03.45-.17.83-.56,1.04h0ZM206.2,75.29c-1.97-1.4-2.76-4.2-1.99-6.23.38-1.01.12-2.2,1.14-3.04.67-.56,1.32-1.07,2.18-1.07,1.94,0,3.96-.46,5.57,1.27,1.04,1.12,1.48,2.76.81,4.2-.4.84-.8,1.69-1.26,2.49-1.22,2.09-4.5,3.29-6.44,2.38h0ZM266.33,149.33c-.95-.14-1.43-.82-1.45-1.76-.02-.78.23-1.51,1.04-1.8.95-.33,2.19,1.04,2.17,2.33-.11,1.4-.97,1.33-1.75,1.22h0Z"/>
  <path class="cls-6" d="M187.87,113.45c-.7-1.66-.11-3.46,1.32-4.02.67-.26,1.43-.18,1.92.42.43.52,1.02,1.12.48,1.85-.45.61-.23,1.37-.62,1.96-.85,1.28-1.99,1.23-3.1-.22h0Z"/>
  <path class="cls-6" d="M181.64,108.93c-1.19.43-2.24.44-3-.54-.48-.61.08-2.87.76-3.51.69-.64,2.16-.35,2.59.51.6,1.21.55,2.38-.35,3.54Z"/>
  <path class="cls-6" d="M197.49,119.11c-.33-1.34.4-2.28,1.01-3.2.41-.62,1.13-.29,1.67-.05,1.41.63.8,1.93.85,2.96.07,1.35-1.22,1-1.95,1.29-.84.34-1.3-.14-1.58-1Z"/>
  <path class="cls-2" d="M235.57,133.17c-.02,2.05-.71,2.92-2.56,3.31-.77.17-1.48-.73-1.3-1.67.08-.41.26-.8.3-1.21.07-.87.18-1.8,1.17-1.97,1.08-.18,2,.24,2.39,1.53h0Z"/>
  <path class="cls-2" d="M226.46,129.69c-.02,2.05-.71,2.92-2.56,3.31-.77.17-1.48-.73-1.3-1.67.08-.41.26-.8.3-1.21.07-.87.18-1.8,1.17-1.97,1.08-.18,2,.24,2.39,1.53h0Z"/>
  <path class="cls-2" d="M242.19,137.38c-.63.79-1.15,1.89-2.17,1.51-.98-.37-.77-1.54-.74-2.47.03-.81.06-1.68.83-2.08.59-.3,1.12.27,1.57.63.75.61,1.08,1.38.51,2.41Z"/>
  <path class="cls-2" d="M247.13,137.65c.67.05,1.36-.16,1.63.61.34.95.41,2.09-.16,2.77-.58.69-1.74.44-2.62.15-.75-.25-.26-.87-.17-1.31.17-.85.31-1.74,1.32-2.22Z"/>
  <g>
    <rect class="cls-1" x="32.67" y="38.1" width="157.02" height="41.88"/>
    <path class="cls-5" d="M40.82,69.77c0-.66.39-.94.78-1.25.39-.31.78-.62.78-1.29v-7.45l-6.94-11.31c-.51-.82-1.01-1.25-1.52-1.6-.55-.43-.9-.7-.9-1.44,0-.62.51-1.09,1.21-1.09h8.5c.74,0,1.21.47,1.21,1.09,0,.58-.31.86-.7,1.13-.55.39-.98.82-.31,1.95l5.11,8.93,5.54-8.93c.66-1.09.12-1.44-.51-1.83-.43-.27-.9-.62-.9-1.25s.51-1.09,1.21-1.09h4.21c.74,0,1.21.47,1.21,1.09,0,.82-.35,1.09-.94,1.52-.47.31-.94.7-1.44,1.52l-7.1,11.23v7.53c0,.66.39.97.78,1.29.39.31.78.58.78,1.25s-.51,1.09-1.21,1.09h-7.6c-.74,0-1.25-.43-1.25-1.09Z"/>
    <path class="cls-5" d="M56.81,60.92c0-6.24,4.17-10.33,10.53-10.33s10.49,4.09,10.49,10.33-4.17,10.33-10.49,10.33-10.53-4.09-10.53-10.33ZM71.44,63.65c0-4.49-1.72-11.16-4.95-11.16-2.15,0-3.24,2.54-3.24,5.73,0,4.52,1.64,11.12,4.95,11.12,1.87,0,3.24-2.03,3.24-5.69Z"/>
    <path class="cls-5" d="M79.82,69.85c0-.58.35-.86.7-1.13.43-.31.74-.62.74-1.25v-12.99c0-.7-.35-1.01-.74-1.29-.35-.27-.7-.55-.7-1.17,0-.58.47-1.05,1.09-1.05h5.34c.9,0,1.48.58,1.48,1.52v1.33c1.68-2.03,4.06-3.24,6.71-3.24,3.55,0,6.12,2.14,6.12,5.93v10.96c0,.62.31.94.74,1.25.35.27.7.55.7,1.13s-.47,1.01-1.13,1.01h-7.14c-.66,0-1.09-.43-1.09-1.01s.35-.86.7-1.13c.39-.31.74-.62.74-1.25v-10.76c0-1.64-1.17-2.77-2.81-2.77-1.44,0-2.69.86-3.55,2.22v11.31c0,.62.35.94.74,1.25.35.27.7.55.7,1.13s-.43,1.01-1.09,1.01h-7.14c-.66,0-1.13-.43-1.13-1.01Z"/>
    <path class="cls-5" d="M103.58,66.03c0-5.03,6.08-6.59,11.97-6.67v-2.96c0-2.89-1.36-3.9-3.08-3.9-1.91,0-2.26,1.29-2.57,2.65-.31,1.48-.62,2.96-2.89,2.96-1.83,0-2.73-1.05-2.73-2.5,0-2.69,3.28-5.03,8.62-5.03s9.13,2.18,9.13,7.29v9.55c0,.7.43,1.05.82,1.33.35.27.66.51.66.98,0,.97-1.4,1.52-3.16,1.52-2.26,0-3.82-.97-4.45-2.54-1.56,1.6-3.67,2.54-6.16,2.54-3.67,0-6.16-1.99-6.16-5.23ZM113.37,67.9c.86,0,1.64-.27,2.22-.78l-.04-.08v-5.15c-.51-.35-1.09-.55-1.83-.55-2.22,0-3.9,1.13-3.9,3.16s1.6,3.39,3.55,3.39Z"/>
    <path class="cls-5" d="M126.67,65.99v-12.87h-1.33c-.66,0-1.09-.47-1.09-1.13,0-.78.62-1.01,1.52-1.37,2.15-.74,3.82-1.95,4.91-3.94.39-.74.74-1.21,1.4-1.21s1.05.43,1.05,1.09v4.41h3.98c.66,0,1.05.43,1.05,1.09s-.39,1.05-1.05,1.05h-3.98v12.68c0,1.17.7,1.91,1.72,1.91.62,0,1.05-.23,1.44-.47.39-.2.74-.35,1.01-.35.51,0,.86.43.86.94,0,1.33-2.46,3.43-5.89,3.43s-5.62-2.11-5.62-5.26Z"/>
    <path class="cls-5" d="M139.57,66.03c0-5.03,6.08-6.59,11.97-6.67v-2.96c0-2.89-1.36-3.9-3.08-3.9-1.91,0-2.26,1.29-2.57,2.65-.31,1.48-.62,2.96-2.89,2.96-1.83,0-2.73-1.05-2.73-2.5,0-2.69,3.28-5.03,8.62-5.03s9.13,2.18,9.13,7.29v9.55c0,.7.43,1.05.82,1.33.35.27.66.51.66.98,0,.97-1.4,1.52-3.16,1.52-2.26,0-3.82-.97-4.45-2.54-1.56,1.6-3.67,2.54-6.16,2.54-3.67,0-6.16-1.99-6.16-5.23ZM149.36,67.9c.86,0,1.64-.27,2.22-.78l-.04-.08v-5.15c-.51-.35-1.09-.55-1.83-.55-2.22,0-3.9,1.13-3.9,3.16s1.6,3.39,3.55,3.39Z"/>
    <path class="cls-5" d="M161.1,69.85c0-.58.35-.86.7-1.13.43-.31.74-.62.74-1.25v-12.99c0-.7-.35-1.01-.74-1.29-.35-.27-.7-.55-.7-1.17,0-.58.47-1.05,1.09-1.05h5.34c.9,0,1.48.58,1.48,1.52v1.33c1.68-2.03,4.06-3.24,6.71-3.24,3.55,0,6.12,2.14,6.12,5.93v10.96c0,.62.31.94.74,1.25.35.27.7.55.7,1.13s-.47,1.01-1.13,1.01h-7.14c-.66,0-1.09-.43-1.09-1.01s.35-.86.7-1.13c.39-.31.74-.62.74-1.25v-10.76c0-1.64-1.17-2.77-2.81-2.77-1.44,0-2.69.86-3.55,2.22v11.31c0,.62.35.94.74,1.25.35.27.7.55.7,1.13s-.43,1.01-1.09,1.01h-7.14c-.66,0-1.13-.43-1.13-1.01Z"/>
  </g>
  <g>
    <rect class="cls-1" x="231.22" y="156.61" width="123.22" height="54.23"/>
    <path class="cls-4" d="M237.61,181.95c0-1.26-.02-2.08-.07-2.48s-.18-.7-.39-.9c-.21-.2-.69-.48-1.43-.85l-3.59-1.75c.49-2.91,1.09-5.27,1.79-7.08l1.33-.41c2.7.95,4.58,1.73,5.66,2.35.92.49,1.62,1.04,2.09,1.66s.81,1.42,1.01,2.42c.2,1,.3,2.35.3,4.07s-.06,4.91-.18,9.48c-.12,4.57-.28,8.82-.46,12.74l-4.42.74h-1.56l-.09-19.96Z"/>
    <path class="cls-4" d="M266.87,181.45c-.06-1.26-.15-2.15-.28-2.69-.12-.54-.36-.9-.71-1.08-.35-.18-.94-.28-1.77-.28h-6.44c1.13,5.89,1.7,9.35,1.7,10.4,0,.49-.08,1.63-.23,3.4l-.46,3.91h-10.44l.41-7.68h4.78c-.58-2.58-1.49-5.93-2.71-10.07-.28-.06-1.18-.31-2.71-.74.21-2.82.63-5.49,1.24-8l3.13-.55.83.92c.28.34.53.54.76.62.23.08.65.12,1.26.12h10.58c1.9,0,3.38.31,4.44.94,1.06.63,1.81,1.66,2.25,3.08.44,1.43.67,3.41.67,5.96,0,5.77-.17,10.76-.51,15l-3.82.97h-1.84c0-7.11-.05-11.85-.14-14.21Z"/>
    <path class="cls-4" d="M276.57,187.43h7.41c-.12-2.12-.23-3.77-.32-4.97-.09-1.23-.19-2.09-.3-2.6s-.28-.9-.53-1.17c-.25-.28-.69-.58-1.33-.92l-4.05-2.12c.4-1.41,1.26-3.74,2.58-6.99l1.2-.23c2.3.98,3.96,1.78,4.97,2.39.95.55,1.66,1.1,2.12,1.66s.79,1.26.99,2.14c.2.87.33,2.12.39,3.75.03.77.05,2.18.05,4.23,0,5.31-.09,9.48-.28,12.51h-13.29l.41-7.68Z"/>
    <path class="cls-4" d="M298.15,181.91c0-1.23-.03-2.05-.09-2.46-.06-.41-.2-.73-.41-.94-.21-.21-.67-.51-1.38-.87l-3.59-1.7c.52-2.91,1.12-5.24,1.79-6.99l1.33-.55c2.54.98,4.35,1.78,5.43,2.39,1.29.67,2.18,1.54,2.67,2.6.49,1.06.74,2.57.74,4.53,0,2.33-.2,7.94-.6,16.84l-4.09.97h-1.79v-13.8Z"/>
    <path class="cls-4" d="M326.53,192.86c0-5.06-.08-8.92-.23-11.59-.06-1.04-.21-1.84-.44-2.39-.23-.55-.59-.93-1.08-1.15-.49-.21-1.21-.32-2.16-.32h-10.44c-.49,0-1.58-.26-3.27-.78.21-2.82.63-5.49,1.24-8l3.13-.55.83.92c.28.34.53.54.76.62.23.08.65.12,1.26.12h8.28c2.24,0,3.93.31,5.08.94,1.15.63,1.96,1.7,2.42,3.22.46,1.52.69,3.73.69,6.65,0,2.05-.05,4.45-.14,7.18-.09,2.73-.21,5.08-.37,7.04l-3.59.92h-1.93c0-1.13-.02-2.07-.05-2.81ZM309.88,182.55l4.69-.87,1.89-.05-.05,13.11-4.83.92h-1.93l.23-13.11Z"/>
    <path class="cls-4" d="M338.03,186.83l1.61-6.35c.21-.67.32-1.24.32-1.7,0-.28-.1-.53-.3-.76-.2-.23-.61-.54-1.22-.94l-2.9-1.93c.74-2.12,1.73-4.29,2.99-6.53l1.01-.32c.37.18.64.34.83.46,1.04.52,1.92,1,2.62,1.43,1.53.92,2.61,1.8,3.22,2.64.61.84.92,1.86.92,3.06s-.25,2.48-.74,3.86c-.61,2.02-1.38,4.17-2.3,6.44l-4.78,1.15-1.29-.51Z"/>
  </g>
</svg>