<?xml version="1.0" encoding="UTF-8"?>
<svg id="Layer_1" xmlns="http://www.w3.org/2000/svg" version="1.1" viewBox="0 0 98.43 60">
  <!-- Generator: Adobe Illustrator 30.2.1, SVG Export Plug-In . SVG Version: 2.1.1 Build 1)  -->
  <defs>
    <style>
      .st0 {
        fill: #444;
      }

      .st1 {
        fill: #cd83b7;
      }
    </style>
  </defs>
  <g>
    <path class="st0" d="M9,37.16c0-.2.12-.29.24-.38.12-.08.24-.18.24-.38v-2.31l-2.27-3.57c-.13-.23-.28-.35-.42-.44-.17-.12-.28-.2-.28-.43,0-.18.16-.31.36-.31h2.24c.22,0,.36.13.36.31s-.11.26-.22.35c-.16.11-.28.23-.1.53l1.74,2.93,1.86-2.91c.19-.3.04-.41-.14-.52-.13-.08-.28-.18-.28-.37,0-.18.16-.31.36-.31h1.19c.23,0,.36.13.36.31,0,.24-.11.34-.28.44-.13.1-.26.2-.41.43l-2.29,3.55v2.34c0,.2.12.3.24.38.11.1.23.18.23.38,0,.19-.13.31-.35.31h-2.05c-.2,0-.35-.12-.35-.31Z"/>
    <path class="st0" d="M13.74,34.42c0-1.92,1.26-3.18,3.17-3.18s3.15,1.26,3.15,3.18-1.26,3.18-3.15,3.18-3.17-1.26-3.17-3.18ZM18.39,35.09c0-1.51-.65-3.31-1.74-3.31-.77,0-1.25.85-1.25,1.98,0,1.51.65,3.3,1.74,3.3.73,0,1.25-.76,1.25-1.97Z"/>
    <path class="st0" d="M20.8,37.19c0-.18.11-.26.22-.34.12-.1.23-.18.23-.37v-4.07c0-.22-.12-.31-.24-.4-.11-.08-.22-.17-.22-.35s.13-.31.32-.31h1.37c.28,0,.44.17.44.46v.47c.53-.65,1.28-1.04,2.12-1.04,1.1,0,1.89.67,1.89,1.83v3.41c0,.19.11.28.23.37.11.07.22.16.22.34,0,.17-.12.29-.32.29h-1.92c-.19,0-.32-.12-.32-.29,0-.18.11-.26.22-.34.13-.1.23-.18.23-.37v-3.35c0-.6-.41-1-1-1-.55,0-1.04.32-1.34.84v3.5c0,.19.1.28.23.37.11.07.22.16.22.34,0,.17-.13.29-.32.29h-1.92c-.19,0-.32-.12-.32-.29Z"/>
    <path class="st0" d="M27.98,35.98c0-1.5,1.8-2.02,3.83-2.04v-.83c0-.94-.49-1.33-1.16-1.33s-.8.43-.91.85c-.1.42-.19.82-.79.82-.49,0-.74-.28-.74-.68,0-.77.95-1.52,2.57-1.52s2.72.7,2.72,2.22v3.01c0,.22.13.31.25.41.11.07.2.14.2.3,0,.26-.37.42-.85.42-.65,0-1.08-.3-1.22-.78-.48.49-1.15.78-1.93.78-1.16,0-1.96-.62-1.96-1.62ZM30.84,36.71c.38,0,.74-.14.97-.4v-1.65c-.19-.1-.4-.16-.67-.16-.89,0-1.52.41-1.52,1.09s.55,1.12,1.22,1.12Z"/>
    <path class="st0" d="M35.1,36.05v-4.09h-.53c-.18,0-.3-.13-.3-.31,0-.22.18-.29.44-.37.65-.2,1.09-.53,1.38-1.16.11-.22.2-.37.4-.37.17,0,.29.12.29.3v1.32h1.31c.18,0,.3.12.3.3,0,.19-.12.3-.3.3h-1.31v4.04c0,.4.23.65.59.65.2,0,.36-.08.49-.16.12-.07.23-.12.31-.12.14,0,.23.11.23.24,0,.38-.71.98-1.68.98s-1.62-.62-1.62-1.55Z"/>
    <path class="st0" d="M38.89,35.98c0-1.5,1.8-2.02,3.83-2.04v-.83c0-.94-.49-1.33-1.16-1.33s-.8.43-.91.85c-.1.42-.19.82-.79.82-.49,0-.74-.28-.74-.68,0-.77.95-1.52,2.57-1.52s2.72.7,2.72,2.22v3.01c0,.22.13.31.25.41.11.07.2.14.2.3,0,.26-.37.42-.85.42-.65,0-1.08-.3-1.22-.78-.48.49-1.15.78-1.93.78-1.16,0-1.96-.62-1.96-1.62ZM41.75,36.71c.38,0,.74-.14.97-.4v-1.65c-.19-.1-.4-.16-.67-.16-.89,0-1.52.41-1.52,1.09s.55,1.12,1.22,1.12Z"/>
    <path class="st0" d="M45.48,37.19c0-.18.11-.26.22-.34.12-.1.23-.18.23-.37v-4.07c0-.22-.12-.31-.24-.4-.11-.08-.22-.17-.22-.35s.13-.31.32-.31h1.37c.28,0,.44.17.44.46v.47c.53-.65,1.28-1.04,2.12-1.04,1.1,0,1.89.67,1.89,1.83v3.41c0,.19.11.28.23.37.11.07.22.16.22.34,0,.17-.12.29-.32.29h-1.92c-.19,0-.32-.12-.32-.29,0-.18.11-.26.22-.34.13-.1.23-.18.23-.37v-3.35c0-.6-.41-1-1-1-.55,0-1.04.32-1.34.84v3.5c0,.19.1.28.23.37.11.07.22.16.22.34,0,.17-.13.29-.32.29h-1.92c-.19,0-.32-.12-.32-.29Z"/>
  </g>
  <g>
    <path class="st0" d="M59.52,34.37c0-.38,0-.63-.02-.76-.01-.12-.05-.21-.12-.27-.07-.06-.21-.15-.43-.26l-1.09-.53c.15-.89.33-1.6.55-2.16l.41-.13c.82.29,1.4.53,1.72.71.28.15.49.32.64.5.14.19.25.43.31.74.06.3.09.72.09,1.24s-.02,1.49-.06,2.88-.08,2.68-.14,3.88l-1.34.22h-.48l-.03-6.08Z"/>
    <path class="st0" d="M68.43,34.21c-.02-.38-.05-.66-.08-.82-.04-.16-.11-.27-.22-.33-.11-.06-.29-.08-.54-.08h-1.96c.34,1.79.52,2.85.52,3.17,0,.15-.02.49-.07,1.04l-.14,1.19h-3.18l.13-2.34h1.46c-.18-.78-.45-1.81-.83-3.07-.08-.02-.36-.09-.83-.22.07-.86.19-1.67.38-2.44l.95-.17.25.28c.08.1.16.17.23.19.07.02.2.04.38.04h3.22c.58,0,1.03.1,1.35.29.32.19.55.5.69.94.13.43.2,1.04.2,1.81,0,1.75-.05,3.28-.15,4.56l-1.16.29h-.56c0-2.17-.01-3.61-.04-4.33Z"/>
    <path class="st0" d="M71.38,36.03h2.25c-.04-.64-.07-1.15-.1-1.51-.03-.37-.06-.64-.09-.79-.03-.15-.09-.27-.16-.36-.08-.08-.21-.18-.41-.28l-1.23-.64c.12-.43.38-1.14.78-2.13l.36-.07c.7.3,1.2.54,1.51.73.29.17.5.34.64.5.14.17.24.39.3.65s.1.65.12,1.14c0,.23.01.66.01,1.29,0,1.61-.03,2.88-.08,3.81h-4.05l.13-2.34Z"/>
    <path class="st0" d="M77.95,34.35c0-.37,0-.62-.03-.75-.02-.13-.06-.22-.13-.29-.07-.06-.21-.15-.42-.27l-1.09-.52c.16-.89.34-1.6.55-2.13l.41-.17c.77.3,1.33.54,1.65.73.39.2.66.47.81.79s.22.78.22,1.38c0,.71-.06,2.42-.18,5.12l-1.25.29h-.55v-4.2Z"/>
    <path class="st0" d="M86.58,37.68c0-1.54-.02-2.72-.07-3.53-.02-.32-.06-.56-.13-.73s-.18-.28-.33-.35-.37-.1-.66-.1h-3.18c-.15,0-.48-.08-.99-.24.07-.86.19-1.67.38-2.44l.95-.17.25.28c.08.1.16.17.23.19.07.02.2.04.38.04h2.52c.68,0,1.2.1,1.55.29.35.19.6.52.74.98s.21,1.14.21,2.02c0,.63-.01,1.35-.04,2.18s-.07,1.54-.11,2.14l-1.09.28h-.59c0-.34,0-.63-.01-.85ZM81.52,34.55l1.43-.27h.57s-.01,3.98-.01,3.98l-1.47.28h-.59l.07-3.99Z"/>
    <path class="st0" d="M90.08,35.85l.49-1.93c.07-.21.1-.38.1-.52,0-.08-.03-.16-.09-.23s-.18-.17-.37-.29l-.88-.59c.22-.64.53-1.31.91-1.99l.31-.1c.11.06.2.1.25.14.32.16.58.3.8.43.47.28.79.55.98.8s.28.57.28.93-.08.76-.22,1.18c-.19.62-.42,1.27-.7,1.96l-1.46.35-.39-.15Z"/>
  </g>
  <g>
    <polygon class="st1" points="60.65 10.37 53.4 32.06 55.25 32.59 60.65 10.37"/>
    <polygon class="st1" points="50.06 22.33 55.28 37.67 57.58 36.69 50.06 22.33"/>
    <polygon class="st1" points="50.56 49.49 54.96 35.25 56.76 35.94 50.56 49.49"/>
  </g>
</svg>